<mxfile host="65bd71144e">
    <diagram id="XHk-bZ8t28PDqSV33KaL" name="Page-1">
        <mxGraphModel dx="1507" dy="480" grid="1" gridSize="10" guides="1" tooltips="1" connect="1" arrows="1" fold="1" page="1" pageScale="1" pageWidth="850" pageHeight="1100" math="0" shadow="0">
            <root>
                <mxCell id="0"/>
                <mxCell id="1" parent="0"/>
                <mxCell id="2" value="&lt;font color=&quot;#000000&quot; style=&quot;font-size: 20px&quot;&gt;Computer Hardware (integrated circuits)&lt;/font&gt;" style="shape=cube;whiteSpace=wrap;html=1;boundedLbl=1;backgroundOutline=1;darkOpacity=0.05;darkOpacity2=0.1;direction=east;fillColor=#a20025;fontColor=#ffffff;strokeColor=#000000;strokeWidth=3;" vertex="1" parent="1">
                    <mxGeometry y="236" width="480" height="80" as="geometry"/>
                </mxCell>
                <mxCell id="3" value="&lt;font color=&quot;#000000&quot; style=&quot;font-size: 20px&quot;&gt;Machine Code&lt;/font&gt;" style="shape=cube;whiteSpace=wrap;html=1;boundedLbl=1;backgroundOutline=1;darkOpacity=0.05;darkOpacity2=0.1;direction=east;fillColor=#d80073;fontColor=#ffffff;strokeColor=#000000;strokeWidth=3;" vertex="1" parent="1">
                    <mxGeometry x="40" y="176" width="400" height="80" as="geometry"/>
                </mxCell>
                <mxCell id="4" value="&lt;font color=&quot;#000000&quot; style=&quot;font-size: 20px&quot;&gt;Assembly Language&lt;/font&gt;" style="shape=cube;whiteSpace=wrap;html=1;boundedLbl=1;backgroundOutline=1;darkOpacity=0.05;darkOpacity2=0.1;direction=east;fillColor=#6a00ff;fontColor=#ffffff;strokeColor=#000000;strokeWidth=3;" vertex="1" parent="1">
                    <mxGeometry x="80" y="116" width="320" height="80" as="geometry"/>
                </mxCell>
                <mxCell id="5" value="&lt;font color=&quot;#000000&quot; style=&quot;font-size: 20px&quot;&gt;High-Level Language&lt;/font&gt;" style="shape=cube;whiteSpace=wrap;html=1;boundedLbl=1;backgroundOutline=1;darkOpacity=0.05;darkOpacity2=0.1;direction=east;fillColor=#008a00;fontColor=#ffffff;strokeColor=#000000;strokeWidth=3;" vertex="1" parent="1">
                    <mxGeometry x="120" y="56" width="240" height="80" as="geometry"/>
                </mxCell>
            </root>
        </mxGraphModel>
    </diagram>
</mxfile>